<?xml version="1.0" encoding="UTF-8" standalone="no"?>
<!DOCTYPE svg PUBLIC "-//W3C//DTD SVG 1.1//EN" "http://www.w3.org/Graphics/SVG/1.1/DTD/svg11.dtd">
<svg width="100%" height="100%" viewBox="0 0 800 800" version="1.1" xmlns="http://www.w3.org/2000/svg" xmlns:xlink="http://www.w3.org/1999/xlink" xml:space="preserve" xmlns:serif="http://www.serif.com/" style="fill-rule:evenodd;clip-rule:evenodd;stroke-linejoin:round;stroke-miterlimit:2;">
    <g id="Tec">
        <path d="M115.482,115.482C66.667,164.298 66.667,242.865 66.667,400C66.667,557.133 66.667,635.703 115.482,684.517C164.298,733.333 242.865,733.333 400,733.333C557.133,733.333 635.703,733.333 684.517,684.517C733.333,635.703 733.333,557.133 733.333,400C733.333,242.865 733.333,164.298 684.517,115.482C635.703,66.667 557.133,66.667 400,66.667C242.865,66.667 164.298,66.667 115.482,115.482Z"/>
        <g transform="matrix(1,0,0,1,-2.5,-2.5)">
            <g transform="matrix(4.72478,0,0,4.72478,108.047,244.712)">
                <path d="M113.813,28.9C112.663,28.25 111.4,27.787 110.025,27.512C108.65,27.237 107.313,27.1 106.013,27.1C103.863,27.1 101.913,27.562 100.163,28.487C98.413,29.412 96.913,30.637 95.663,32.162C94.413,33.687 93.438,35.412 92.738,37.337C92.038,39.262 91.688,41.225 91.688,43.225C91.688,44.525 91.888,45.725 92.288,46.825C92.688,47.925 93.263,48.887 94.013,49.712C94.763,50.537 95.675,51.187 96.75,51.662C97.825,52.137 99.038,52.375 100.388,52.375C101.938,52.375 103.463,52.237 104.963,51.962C106.463,51.687 107.913,51.225 109.313,50.575L108.113,57.85C106.213,58.4 104.313,58.787 102.413,59.012C100.513,59.237 98.588,59.35 96.638,59.35C94.488,59.35 92.45,59.05 90.525,58.45C88.6,57.85 86.913,56.95 85.463,55.75C84.013,54.55 82.863,53.062 82.013,51.287C81.163,49.512 80.738,47.45 80.738,45.1C80.738,41.45 81.338,38.1 82.538,35.05C83.738,32 85.425,29.362 87.6,27.137C89.775,24.912 92.375,23.187 95.4,21.962C98.425,20.737 101.763,20.125 105.413,20.125C107.113,20.125 108.863,20.25 110.663,20.5C112.463,20.75 114.163,21.15 115.763,21.7L113.813,28.9ZM79.463,29.2C79.463,31.15 79.025,32.85 78.15,34.3C77.275,35.75 76.113,36.975 74.663,37.975C73.213,38.975 71.563,39.775 69.713,40.375C67.863,40.975 65.95,41.437 63.975,41.762C62,42.087 60.05,42.312 58.125,42.437C56.2,42.562 54.463,42.625 52.913,42.625C52.713,43.175 52.575,43.762 52.5,44.387C52.425,45.012 52.388,45.6 52.388,46.15C52.388,47.4 52.613,48.475 53.063,49.375C53.513,50.275 54.125,51 54.9,51.55C55.675,52.1 56.575,52.512 57.6,52.787C58.625,53.062 59.713,53.2 60.863,53.2C62.813,53.2 64.825,52.887 66.9,52.262C68.975,51.637 70.813,50.8 72.413,49.75L72.038,56.425C69.888,57.475 67.613,58.225 65.213,58.675C62.813,59.125 60.313,59.35 57.713,59.35C55.663,59.35 53.688,59.112 51.788,58.637C49.888,58.162 48.2,57.425 46.725,56.425C45.25,55.425 44.063,54.112 43.163,52.487C42.263,50.862 41.813,48.9 41.813,46.6C41.813,42.85 42.475,39.362 43.8,36.137C45.125,32.912 46.913,30.112 49.163,27.737C51.413,25.362 54.025,23.5 57,22.15C59.975,20.8 63.138,20.125 66.488,20.125C67.988,20.125 69.513,20.275 71.063,20.575C72.613,20.875 74.013,21.375 75.263,22.075C76.513,22.775 77.525,23.712 78.3,24.887C79.075,26.062 79.463,27.5 79.463,29.2ZM52.088,17.275L36.563,17.275L27.788,58.525L16.763,58.525L25.538,17.275L9.938,17.275L11.813,8.5L53.888,8.5L52.088,17.275ZM70.088,29.875C70.088,28.475 69.65,27.512 68.775,26.987C67.9,26.462 66.838,26.2 65.588,26.2C64.138,26.2 62.813,26.537 61.613,27.212C60.413,27.887 59.313,28.75 58.313,29.8C57.313,30.85 56.438,32.012 55.688,33.287C54.938,34.562 54.338,35.8 53.888,37C55.588,37 57.388,36.912 59.288,36.738C61.188,36.562 62.938,36.212 64.538,35.687C66.138,35.162 67.463,34.437 68.513,33.512C69.563,32.587 70.088,31.375 70.088,29.875Z" style="fill:white;fill-opacity:0.4;fill-rule:nonzero;"/>
            </g>
            <g transform="matrix(4.72478,0,0,4.72478,103.047,239.712)">
                <path d="M113.813,28.9C112.663,28.25 111.4,27.787 110.025,27.512C108.65,27.237 107.313,27.1 106.013,27.1C103.863,27.1 101.913,27.562 100.163,28.487C98.413,29.412 96.913,30.637 95.663,32.162C94.413,33.687 93.438,35.412 92.738,37.337C92.038,39.262 91.688,41.225 91.688,43.225C91.688,44.525 91.888,45.725 92.288,46.825C92.688,47.925 93.263,48.887 94.013,49.712C94.763,50.537 95.675,51.187 96.75,51.662C97.825,52.137 99.038,52.375 100.388,52.375C101.938,52.375 103.463,52.237 104.963,51.962C106.463,51.687 107.913,51.225 109.313,50.575L108.113,57.85C106.213,58.4 104.313,58.787 102.413,59.012C100.513,59.237 98.588,59.35 96.638,59.35C94.488,59.35 92.45,59.05 90.525,58.45C88.6,57.85 86.913,56.95 85.463,55.75C84.013,54.55 82.863,53.062 82.013,51.287C81.163,49.512 80.738,47.45 80.738,45.1C80.738,41.45 81.338,38.1 82.538,35.05C83.738,32 85.425,29.362 87.6,27.137C89.775,24.912 92.375,23.187 95.4,21.962C98.425,20.737 101.763,20.125 105.413,20.125C107.113,20.125 108.863,20.25 110.663,20.5C112.463,20.75 114.163,21.15 115.763,21.7L113.813,28.9ZM79.463,29.2C79.463,31.15 79.025,32.85 78.15,34.3C77.275,35.75 76.113,36.975 74.663,37.975C73.213,38.975 71.563,39.775 69.713,40.375C67.863,40.975 65.95,41.437 63.975,41.762C62,42.087 60.05,42.312 58.125,42.437C56.2,42.562 54.463,42.625 52.913,42.625C52.713,43.175 52.575,43.762 52.5,44.387C52.425,45.012 52.388,45.6 52.388,46.15C52.388,47.4 52.613,48.475 53.063,49.375C53.513,50.275 54.125,51 54.9,51.55C55.675,52.1 56.575,52.512 57.6,52.787C58.625,53.062 59.713,53.2 60.863,53.2C62.813,53.2 64.825,52.887 66.9,52.262C68.975,51.637 70.813,50.8 72.413,49.75L72.038,56.425C69.888,57.475 67.613,58.225 65.213,58.675C62.813,59.125 60.313,59.35 57.713,59.35C55.663,59.35 53.688,59.112 51.788,58.637C49.888,58.162 48.2,57.425 46.725,56.425C45.25,55.425 44.063,54.112 43.163,52.487C42.263,50.862 41.813,48.9 41.813,46.6C41.813,42.85 42.475,39.362 43.8,36.137C45.125,32.912 46.913,30.112 49.163,27.737C51.413,25.362 54.025,23.5 57,22.15C59.975,20.8 63.138,20.125 66.488,20.125C67.988,20.125 69.513,20.275 71.063,20.575C72.613,20.875 74.013,21.375 75.263,22.075C76.513,22.775 77.525,23.712 78.3,24.887C79.075,26.062 79.463,27.5 79.463,29.2ZM52.088,17.275L36.563,17.275L27.788,58.525L16.763,58.525L25.538,17.275L9.938,17.275L11.813,8.5L53.888,8.5L52.088,17.275ZM70.088,29.875C70.088,28.475 69.65,27.512 68.775,26.987C67.9,26.462 66.838,26.2 65.588,26.2C64.138,26.2 62.813,26.537 61.613,27.212C60.413,27.887 59.313,28.75 58.313,29.8C57.313,30.85 56.438,32.012 55.688,33.287C54.938,34.562 54.338,35.8 53.888,37C55.588,37 57.388,36.912 59.288,36.738C61.188,36.562 62.938,36.212 64.538,35.687C66.138,35.162 67.463,34.437 68.513,33.512C69.563,32.587 70.088,31.375 70.088,29.875Z" style="fill:white;fill-rule:nonzero;"/>
            </g>
        </g>
    </g>
</svg>
